<svg width="443" height="512" viewBox="0 0 443 512" fill="none" xmlns="http://www.w3.org/2000/svg">
<path d="M377.547 189.269C384.331 250.126 394.131 258.391 434.084 304.973C461.604 337.062 441.917 391.134 423.243 423.927C418.399 432.432 409.127 437.209 399.32 437.209H141.648C119.82 437.209 39.5432 374.362 24.01 359.069C-37.8025 298.211 -2.37337 175.744 41.3477 151.702C85.0686 127.659 134.82 173.491 213.217 102.865C291.613 32.2401 371.265 132.919 377.547 189.269Z" fill="#E7E8FF"/>
<path d="M122.293 125.051C143.935 125.451 159.213 112.548 164.147 106.047C165.509 102.879 167.108 95.8442 162.616 93.0436C157.001 89.5427 141.178 101.546 122.293 96.5445C103.408 91.5432 98.814 101.045 84.0119 116.049C69.2098 131.053 95.2411 124.551 122.293 125.051Z" fill="#E7E8FF"/>
<path d="M132.944 432.669H210.63C232.253 424.73 261.084 415.203 253.877 396.943C246.668 378.684 210.63 403.296 201.019 385.83C191.407 368.364 269.093 365.983 261.084 343.754C253.074 321.524 204.223 350.104 210.63 328.668C217.036 307.234 271.495 315.172 269.093 292.944C266.69 270.715 225.846 307.234 221.04 281.829C216.234 256.425 260.283 211.173 225.846 203.233C191.407 195.294 201.019 277.859 189.006 281.829C176.993 285.799 165.78 242.929 148.963 261.982C132.144 281.035 160.974 323.905 148.963 343.754C136.949 363.6 120.131 289.768 100.91 323.905C85.5329 351.215 115.859 407.794 132.944 432.669Z" fill="white"/>
<path d="M88.9991 240.826L85.8626 257.292L88.9991 274.541C97.1015 275.587 113.62 277.678 114.874 277.678C116.129 277.678 125.329 269.838 129.772 265.917L125.068 240.826C138.241 236.435 142.58 217.042 143.102 207.892C146.239 170.256 121.147 165.552 116.443 165.552C111.738 165.552 81.9422 165.552 78.0217 196.915C74.8852 222.007 84.0331 236.643 88.9991 240.826Z" fill="white"/>
<path fill-rule="evenodd" clip-rule="evenodd" d="M97.5702 170.847C89.4601 174.575 81.4106 182.002 79.523 197.103C76.4377 221.786 85.4709 235.877 89.9736 239.669L90.651 240.239L87.4017 257.299L90.2897 273.183C94.301 273.698 99.8528 274.405 104.69 275C107.338 275.328 109.769 275.62 111.614 275.831C112.537 275.939 113.309 276.023 113.886 276.081C114.176 276.11 114.411 276.132 114.589 276.147C114.628 276.151 114.664 276.152 114.697 276.156C114.755 276.127 114.832 276.084 114.93 276.028C115.25 275.84 115.685 275.55 116.224 275.162C117.295 274.393 118.675 273.312 120.173 272.094C122.887 269.887 125.933 267.272 128.127 265.349L123.338 239.807L124.589 239.391C130.571 237.396 134.709 231.931 137.438 225.548C140.152 219.201 141.338 212.243 141.592 207.807L141.593 207.787L141.594 207.768C143.131 189.32 137.75 179.232 131.695 173.728C125.558 168.149 118.497 167.064 116.443 167.064C114.122 167.064 105.78 167.072 97.5702 170.847ZM114.574 276.21C114.574 276.21 114.581 276.207 114.595 276.202C114.58 276.209 114.574 276.21 114.574 276.21ZM116.43 164.039H116.443C119.093 164.039 126.93 165.307 133.731 171.489C140.611 177.744 146.205 188.822 144.612 208C144.339 212.71 143.095 220.013 140.22 226.737C137.524 233.044 133.275 239.106 126.789 241.797L131.418 266.482L130.773 267.051C128.543 269.02 125.116 271.974 122.083 274.442C120.569 275.673 119.135 276.797 117.99 277.62C117.42 278.03 116.896 278.383 116.455 278.641C116.237 278.769 116.01 278.888 115.791 278.982C115.616 279.057 115.272 279.192 114.874 279.192C114.449 279.192 113.058 279.043 111.269 278.839C109.411 278.625 106.97 278.33 104.32 278.004C99.0166 277.35 92.8584 276.565 88.8054 276.043L87.7084 275.901L84.3237 257.285L87.3532 241.381C81.8716 236.175 73.4608 221.204 76.5203 196.727C78.5531 180.466 87.3619 172.209 96.306 168.097C105.134 164.039 114.026 164.039 116.43 164.039Z" fill="#032068"/>
<path d="M12.94 435.284H136.044L292.08 434.498C301.737 428.203 304.438 418.043 304.464 409.426C304.486 402.365 299.397 396.686 293.036 393.619C267.769 381.438 229.418 362.588 222.295 357.657C212.103 350.6 202.694 312.178 183.874 282.383C168.82 258.546 140.488 253.111 128.987 253.372C127.942 258.075 123.499 267.486 107.817 267.486C92.1345 267.486 85.6003 258.075 83.5093 253.372C75.4069 253.372 52.9293 257.763 34.1109 275.326C10.6041 297.265 0.408493 347.394 -8.99524 393.629L-9.01487 393.726C-16.5423 430.735 2.48534 436.328 12.94 435.284Z" fill="white"/>
<path fill-rule="evenodd" clip-rule="evenodd" d="M130.159 254.877C129.425 257.353 127.902 260.562 124.914 263.306C121.396 266.537 115.983 268.998 107.816 268.998C92.3084 268.998 85.214 260.168 82.5618 254.903C74.062 255.229 52.9411 259.821 35.1431 276.432C23.6885 287.123 15.3579 304.821 8.71147 325.823C2.07765 346.786 -2.807 370.794 -7.51279 393.931L-7.53242 394.027C-11.2533 412.322 -8.31715 422.4 -3.63883 427.783C1.04938 433.176 7.85062 434.272 12.7894 433.778L12.8645 433.77H136.044L291.621 432.988C300.39 427.061 302.926 417.647 302.952 409.421C302.971 403.156 298.436 397.903 292.379 394.982C279.743 388.89 263.83 381.128 250.183 374.272C236.598 367.445 225.106 361.443 221.435 358.902C218.543 356.9 215.9 352.855 213.294 347.802C210.652 342.68 207.909 336.227 204.924 329.134C204.723 328.655 204.52 328.17 204.315 327.683C198.459 313.755 191.611 297.465 182.596 283.191C175.276 271.601 164.712 264.458 154.52 260.238C144.976 256.288 135.835 254.935 130.159 254.877ZM155.677 257.442C166.289 261.835 177.42 269.329 185.154 281.576C194.305 296.066 201.24 312.561 207.075 326.441C207.29 326.951 207.503 327.458 207.715 327.96C210.708 335.078 213.406 341.417 215.983 346.416C218.596 351.481 220.952 354.886 223.157 356.414C226.607 358.803 237.853 364.691 251.542 371.569C265.168 378.414 281.064 386.168 293.693 392.257C300.356 395.469 306.002 401.577 305.978 409.431C305.95 418.325 303.153 429.085 292.908 435.767L292.534 436.011L136.052 436.796H136.044H13.0141C7.50144 437.33 -0.391044 436.132 -5.92269 429.768C-11.49 423.363 -14.3041 412.14 -10.4976 393.424L-10.4684 393.281C-5.77319 370.197 -0.860376 346.04 5.82652 324.91C12.5057 303.806 21.0261 285.469 33.0784 274.22C52.2141 256.36 75.0776 251.858 83.5092 251.858H84.4924L84.8918 252.757C86.8178 257.091 92.9029 265.972 107.816 265.972C115.332 265.972 119.982 263.728 122.867 261.079C125.781 258.401 127.035 255.183 127.51 253.042L127.768 251.885L128.953 251.86C134.914 251.723 145.082 253.056 155.677 257.442Z" fill="#032068"/>
<path d="M65.4748 374.907L77.2363 327.078L74.884 374.907L128.441 387.97C135.318 389.647 141.749 393.923 143.049 400.881C145.372 413.292 140.741 426.491 135.26 431.364C139.964 424.631 139.964 399.215 134.476 395.295C130.085 392.158 75.668 381.964 49.0085 377.26L65.4748 374.907Z" fill="#032068"/>
<path d="M182.307 314.532L211.319 435.284H223.865L182.307 314.532Z" fill="#032068"/>
<path d="M97.6212 225.143C94.4847 243.335 90.0416 245.268 88.2119 243.961C66.257 229.849 66.7867 184.755 80.3709 169.472C92.9166 155.358 102.326 160.847 128.201 154.574C154.076 148.301 162.701 159.279 157.998 173.392C151.224 193.71 129.769 182.803 124.281 185.154C118.792 187.506 111.735 193.78 108.599 206.326C105.462 218.871 103.894 216.518 101.542 209.461C99.1893 202.404 92.9166 192.212 88.2119 204.757C84.4483 214.792 92.9166 222.53 97.6212 225.143Z" fill="#032068"/>
<path d="M190.146 435.284C190.146 413.955 158.522 407.578 143.1 407.055C143.1 417.719 136.566 430.317 132.907 435.284H190.146Z" fill="white"/>
<path fill-rule="evenodd" clip-rule="evenodd" d="M141.588 405.49L143.151 405.543C150.987 405.809 162.952 407.555 173.016 411.982C183.035 416.389 191.66 423.704 191.66 435.284V436.796H129.913L131.689 434.386C133.435 432.017 135.926 427.737 137.976 422.733C140.03 417.719 141.588 412.11 141.588 407.055V405.49ZM144.57 408.636C144.292 413.781 142.706 419.171 140.776 423.88C139.203 427.72 137.371 431.177 135.75 433.77H188.574C187.87 424.854 180.937 418.773 171.798 414.752C162.814 410.801 152.123 409.055 144.57 408.636Z" fill="#032068"/>
<path d="M342.548 433.841C342.548 414.884 317.486 410.856 303.967 410.392C303.967 419.871 295.574 429.428 292.365 433.841H342.548Z" fill="white"/>
<path fill-rule="evenodd" clip-rule="evenodd" d="M302.453 408.825L304.018 408.88C310.854 409.114 320.718 410.249 328.927 413.793C337.155 417.347 344.06 423.504 344.06 433.842V435.355H289.396L291.142 432.952C291.592 432.333 292.123 431.638 292.707 430.875C294.297 428.791 296.277 426.201 298.076 423.233C300.527 419.186 302.453 414.715 302.453 410.392V408.825ZM305.411 411.967C305.013 416.568 302.95 421.024 300.663 424.8C298.919 427.679 296.958 430.293 295.405 432.329H340.975C340.353 424.591 334.95 419.69 327.727 416.57C320.585 413.486 311.958 412.307 305.411 411.967Z" fill="#032068"/>
<path fill-rule="evenodd" clip-rule="evenodd" d="M-10.6925 406.98C-11.0632 422.118 -5.75526 435.284 10.441 435.284H24.7045C20.9409 410.192 1.03283 395.034 -8.3767 390.589C-8.58338 391.605 -8.78937 392.619 -8.9952 393.629L-9.01482 393.726C-10.0177 398.657 -10.5493 403.058 -10.6925 406.98Z" fill="#032068"/>
<path d="M110.018 240.587C117.32 243.021 122.38 241.601 124.916 240.587L127.268 251.564C117.531 250.348 112.046 243.376 110.018 240.587Z" fill="#032068"/>
<path d="M352.65 279.689C349.655 353.162 372.666 408.259 386.696 430.09C387.973 432.077 390.188 433.191 392.55 433.191H397.114C401.148 433.191 404.418 429.858 404.355 425.824C402.781 327.352 378.185 286.623 360.82 274.734C357.111 272.196 352.832 275.198 352.65 279.689Z" fill="white"/>
<path fill-rule="evenodd" clip-rule="evenodd" d="M356.227 275.85C355.116 276.56 354.234 277.965 354.162 279.75C351.179 352.901 374.101 407.692 387.969 429.271C388.946 430.792 390.659 431.677 392.55 431.677H397.114C400.3 431.677 402.892 429.039 402.841 425.847C402.056 376.724 395.53 342.098 387.084 318.317C378.629 294.511 368.29 281.682 359.966 275.983C358.632 275.07 357.292 275.169 356.227 275.85ZM354.597 273.3C356.645 271.991 359.299 271.86 361.675 273.486C370.717 279.676 381.358 293.154 389.935 317.303C398.522 341.477 405.079 376.45 405.867 425.8C405.946 430.675 401.996 434.703 397.114 434.703H392.55C389.715 434.703 387.002 433.364 385.423 430.908C371.232 408.825 348.129 353.423 351.138 279.627C351.249 276.922 352.597 274.579 354.597 273.3Z" fill="#032068"/>
<path d="M457.385 318.568C418.089 345.255 399.655 395.979 393.891 425.634C393.052 429.957 396.452 433.816 400.855 433.816H406.719C408.472 433.816 410.171 433.191 411.47 432.015C445.209 401.5 461.235 354.034 466.865 324.965C467.961 319.305 462.155 315.33 457.385 318.568Z" fill="#032068"/>
<path fill-rule="evenodd" clip-rule="evenodd" d="M365.192 290.667C369.271 303.099 372.961 315.291 376.28 327.023C378.967 336.522 381.411 345.719 383.621 354.497L388.012 343.757L390.813 344.902L384.856 359.465C388.739 375.236 391.842 389.524 394.223 401.609C396.977 415.599 398.766 426.644 399.674 433.621L396.672 434.012C395.791 427.233 394.059 416.507 391.391 402.896L378.057 395.725L379.491 393.061L390.627 399.049C388.321 387.575 385.394 374.272 381.802 359.711C379.361 349.817 376.613 339.343 373.545 328.468L359.919 321.263L361.334 318.587L372.398 324.439C369.345 313.798 365.989 302.8 362.317 291.61L365.192 290.667Z" fill="#032068"/>
<path fill-rule="evenodd" clip-rule="evenodd" d="M445.965 351.155C450.063 344.532 453.995 338.654 457.571 333.986L455.168 332.146C450.906 337.71 446.189 344.9 441.332 352.934C436.772 360.474 432.073 368.778 427.492 377.216L426.59 364.87L423.572 365.09L424.82 382.176C419.468 392.189 414.344 402.224 409.871 411.242C405.654 419.746 402.014 427.349 399.303 433.179L402.046 434.454C404.691 428.768 408.229 421.376 412.329 413.101L425.651 407.684L424.511 404.881L414.366 409.005C418.445 400.853 422.983 392.02 427.695 383.217C432.926 373.443 438.366 363.713 443.617 355.002L453.667 352.039L452.812 349.136L445.965 351.155Z" fill="white"/>
<path d="M267.433 320.519L225.198 416.427C223.078 421.243 226.604 426.648 231.866 426.648H360.743C363.702 426.648 366.368 424.858 367.486 422.117L406.642 326.207C408.598 321.416 405.074 316.17 399.899 316.17H274.101C271.213 316.17 268.597 317.875 267.433 320.519Z" fill="white"/>
<path fill-rule="evenodd" clip-rule="evenodd" d="M274.101 317.682C271.812 317.682 269.74 319.034 268.818 321.128L226.584 417.038C224.903 420.852 227.696 425.134 231.866 425.134H360.743C363.088 425.134 365.199 423.716 366.087 421.545L405.241 325.635C406.792 321.84 403.998 317.682 399.899 317.682H274.101ZM266.049 319.908C267.455 316.716 270.612 314.656 274.101 314.656H399.899C406.149 314.656 410.405 320.992 408.043 326.779L368.887 422.688C367.537 425.998 364.317 428.16 360.743 428.16H231.866C225.512 428.16 221.254 421.632 223.814 415.817L266.049 319.908Z" fill="#032068"/>
<path d="M306.799 363.735C309.167 358.243 314.576 354.685 320.558 354.685C331.33 354.685 338.584 365.711 334.317 375.603L333.254 378.068C330.885 383.561 325.476 387.118 319.494 387.118C308.722 387.118 301.469 376.093 305.735 366.201L306.799 363.735Z" fill="#032068"/>
<path d="M358.719 435.77H135.051C131.412 435.77 128.463 432.821 128.463 429.182C128.463 425.544 131.412 422.593 135.051 422.593H358.719C363.441 422.593 366.629 427.412 364.783 431.758C363.75 434.19 361.362 435.77 358.719 435.77Z" fill="#032068"/>
<path d="M366.576 82.9287L367.663 88.6171C367.73 88.9632 367.599 89.3112 367.322 89.5192L363.808 92.1651C363.052 92.7344 363.571 93.9579 364.523 93.8516L369.032 93.3484C369.36 93.3116 369.691 93.4515 369.899 93.7162L373.01 97.6725C373.596 98.4162 374.77 97.9773 374.68 97.048L374.186 91.9055C374.157 91.6036 374.275 91.3109 374.505 91.1192L377.629 88.5043C378.333 87.9153 377.81 86.7498 376.885 86.8457L372.869 87.262C372.546 87.2954 372.224 87.1597 372.017 86.9031L368.227 82.2075C367.607 81.4395 366.394 81.9699 366.576 82.9287Z" fill="#E7E8FF"/>
<path d="M434.906 219.668L428.667 227.674C428.288 228.162 427.668 228.396 427.062 228.282L419.35 226.835C417.691 226.522 416.691 228.611 417.971 229.714L424.031 234.929C424.473 235.31 424.683 235.897 424.581 236.472L423.06 245.07C422.775 246.688 424.762 247.688 425.886 246.494L432.112 239.886C432.478 239.498 433.007 239.31 433.536 239.382L440.74 240.365C442.363 240.587 443.283 238.559 442.049 237.481L436.69 232.796C436.26 232.421 436.055 231.849 436.147 231.284L437.837 220.954C438.113 219.264 435.958 218.32 434.906 219.668Z" fill="#E7E8FF"/>
</svg>
