<svg width="32" height="32" viewBox="0 0 32 32" fill="none" xmlns="http://www.w3.org/2000/svg">
<rect width="32" height="32" rx="4" fill="white"/>
<path d="M15.486 13.236L18.7642 16.5142M13.2358 15.4858L16.5141 18.7641M19.75 13C19.75 16.7279 16.7279 19.75 13 19.75C9.27208 19.75 6.25 16.7279 6.25 13C6.25 9.27208 9.27208 6.25 13 6.25C16.7279 6.25 19.75 9.27208 19.75 13ZM25.75 19C25.75 22.7279 22.7279 25.75 19 25.75C15.2721 25.75 12.25 22.7279 12.25 19C12.25 15.2721 15.2721 12.25 19 12.25C22.7279 12.25 25.75 15.2721 25.75 19Z" stroke="#2D68FE" stroke-width="1.5" stroke-linecap="round" stroke-linejoin="round"/>
</svg>
